<svg id="ic-calendar" xmlns="http://www.w3.org/2000/svg" width="20" height="20" viewBox="0 0 20 20">
  <path id="Path_52" data-name="Path 52" d="M0,0H20V20H0Z" fill="none"/>
  <path id="Path_53" data-name="Path 53" d="M17,2.666h-.833V1H14.5V2.666H6.165V1H4.5V2.666H3.666A1.671,1.671,0,0,0,2,4.333V17.664a1.671,1.671,0,0,0,1.666,1.666H17a1.671,1.671,0,0,0,1.666-1.666V4.333A1.671,1.671,0,0,0,17,2.666Zm0,15H3.666V8.5H17ZM17,6.832H3.666v-2.5H17Z" transform="translate(-0.331 -0.165)" fill="#ed831b"/>
</svg>
