<svg xmlns="http://www.w3.org/2000/svg" width="24" height="25" viewBox="0 0 24 25">
  <g id="ic-none" transform="translate(0 0.489)">
    <ellipse id="Ellipse_3" data-name="Ellipse 3" cx="12" cy="12.5" rx="12" ry="12.5" transform="translate(0 -0.489)" fill="#f15249"/>
    <path id="Union_1" data-name="Union 1" d="M8.576,11.59l-2.6-2.582L3.367,11.59a1.393,1.393,0,0,1-1.934,0L.391,10.548a1.393,1.393,0,0,1,0-1.934L3,6.009.391,3.4a1.393,1.393,0,0,1,0-1.935L1.47.391A1.393,1.393,0,0,1,3.4.391L6,3.007,8.576.428a1.393,1.393,0,0,1,1.935,0L11.59,1.507a1.393,1.393,0,0,1,0,1.935L9,6.008l2.59,2.568a1.393,1.393,0,0,1,0,1.934L10.511,11.59a1.393,1.393,0,0,1-1.935,0Z" transform="translate(6.06 6.021)" fill="#fff" stroke="#f15249" stroke-width="2"/>
  </g>
</svg>
