<svg xmlns="http://www.w3.org/2000/svg" width="24" height="24" viewBox="0 0 24 24">
  <g id="ic-tel" transform="translate(-697 456)">
    <circle id="Ellipse_2" data-name="Ellipse 2" cx="12" cy="12" r="12" transform="translate(697 -456)" fill="#333"/>
    <g id="phone-call" transform="translate(703 -450)">
      <g id="Group_48" data-name="Group 48" transform="translate(0 0)">
        <path id="Path_595" data-name="Path 595" d="M12.224,8.825,10.546,7.147a1.116,1.116,0,0,0-1.858.42,1.142,1.142,0,0,1-1.319.719A5.175,5.175,0,0,1,4.253,5.169a1.086,1.086,0,0,1,.719-1.319,1.116,1.116,0,0,0,.42-1.858L3.714.315A1.2,1.2,0,0,0,2.1.315L.957,1.453c-1.139,1.2.12,4.375,2.937,7.192s5.993,4.135,7.192,2.937l1.139-1.139A1.2,1.2,0,0,0,12.224,8.825Z" transform="translate(-0.539 0)" fill="#fff"/>
      </g>
    </g>
  </g>
</svg>
