<svg xmlns="http://www.w3.org/2000/svg" width="262.643" height="54.445" viewBox="0 0 262.643 54.445">
  <g id="logo" transform="translate(37.497 18.412)">
    <g id="Group_10" data-name="Group 10" transform="translate(-37.497 -18.412)">
      <g id="Group_6" data-name="Group 6" transform="translate(0 23.358)">
        <path id="Path_15" data-name="Path 15" d="M2.592,29.765H.4V28.5H6.387v1.265H4.11v6.24H2.592Z" transform="translate(-0.4 -28.416)" fill="#00833e"/>
        <path id="Path_16" data-name="Path 16" d="M12.5,35.905l-.675-1.687H8.792L8.2,35.905H6.6L9.551,28.4h1.6l3.036,7.505Zm-1.181-2.951L10.31,30.171,9.3,32.954Z" transform="translate(-1.372 -28.4)" fill="#00833e"/>
        <path id="Path_17" data-name="Path 17" d="M16.8,28.5h1.518v7.505H16.8Z" transform="translate(-2.971 -28.416)" fill="#00833e"/>
        <path id="Path_18" data-name="Path 18" d="M20.4,28.5h1.518l1.1,5.144h0L24.363,28.5h1.771l1.349,5.228h0l1.1-5.228H30.1l-1.855,7.505h-1.6l-1.349-5.566h0l-1.518,5.566H22.087Z" transform="translate(-3.535 -28.416)" fill="#00833e"/>
        <path id="Path_19" data-name="Path 19" d="M37.9,35.905l-.675-1.687H34.192l-.59,1.687H32L34.951,28.4h1.6l3.036,7.505Zm-1.1-2.951-1.1-2.783L34.7,32.954Z" transform="translate(-5.353 -28.4)" fill="#00833e"/>
        <path id="Path_20" data-name="Path 20" d="M41.984,28.5h1.434l3.036,5.06h0V28.5h1.434v7.505H46.369l-3.036-4.891h0v4.891H41.9l.084-7.505Z" transform="translate(-6.905 -28.416)" fill="#00833e"/>
      </g>
      <g id="Group_9" data-name="Group 9" transform="translate(44.946 0)">
        <g id="Group_7" data-name="Group 7">
          <path id="Path_21" data-name="Path 21" d="M117.405,20.432C112.43,6.266,91.264.7,91.264.7A54.35,54.35,0,0,0,83,18.324a26.288,26.288,0,0,1,11.637,3.71c13.324,8.686,14.757,30.189,14.757,30.189S122.3,34.683,117.405,20.432Z" transform="translate(-58.292 -0.7)" fill="#00a7e1"/>
          <path id="Path_22" data-name="Path 22" d="M78.492,35.831a25.322,25.322,0,0,1-.253-14.167C66.265,20.484,53.7,25.122,53.7,25.122S54.965,45.529,68.288,54.13c13.324,8.686,36.345,1.434,36.345,1.434S83.467,50,78.492,35.831Z" transform="translate(-53.7 -3.956)" fill="#61a60e"/>
          <path id="Path_23" data-name="Path 23" d="M94.467,25.31A24.61,24.61,0,0,0,82.83,21.6c-1.1,4.638-1.434,9.613.253,14.167C88.058,50.018,109.308,55.5,109.308,55.5S107.706,34,94.467,25.31Z" transform="translate(-58.122 -3.976)" fill="#00833e"/>
        </g>
        <g id="Group_8" data-name="Group 8" transform="translate(4.807 23.021)">
          <path id="Path_24" data-name="Path 24" d="M95.832,32.2a8.948,8.948,0,0,0-1.771.169L91.7,44.68h1.771a6.863,6.863,0,0,0,5.313-2.192,8.65,8.65,0,0,0,1.939-5.819C100.723,33.718,99.036,32.2,95.832,32.2Z" transform="translate(-64.463 -28.658)" fill="#00833e"/>
          <path id="Path_25" data-name="Path 25" d="M66.315,28.5H62.351L59.4,43.763A37.9,37.9,0,0,0,61.424,47.3h1.349Z" transform="translate(-59.4 -28.078)" fill="#fff"/>
          <path id="Path_26" data-name="Path 26" d="M74.93,32.891a6.948,6.948,0,0,1,4.3-1.434,8.552,8.552,0,0,1,3.373.59l1.1-3.289A8.753,8.753,0,0,0,79.653,28a12.246,12.246,0,0,0-6.83,1.94A10.809,10.809,0,0,0,68.1,39.384c0,4.975,3.289,7.927,8.264,7.927a11.3,11.3,0,0,0,4.891-.843l-.337-3.2a8.9,8.9,0,0,1-3.542.59c-3.289,0-4.975-2.024-4.975-4.975A7.873,7.873,0,0,1,74.93,32.891Z" transform="translate(-60.764 -28)" fill="#fff"/>
          <path id="Path_27" data-name="Path 27" d="M101.632,30.155c-1.518-1.265-3.879-1.855-6.915-1.855a32.324,32.324,0,0,0-5.06.422L86.2,46.936a33.272,33.272,0,0,0,5.144.337c4.048,0,6.83-.759,8.939-2.53a11.445,11.445,0,0,0,3.795-8.854A6.589,6.589,0,0,0,101.632,30.155Zm-3.71,11.806a6.863,6.863,0,0,1-5.313,2.192,11.319,11.319,0,0,1-1.771-.084L93.2,31.757a8.948,8.948,0,0,1,1.771-.169c3.289,0,4.891,1.6,4.891,4.554A8.805,8.805,0,0,1,97.921,41.961Z" transform="translate(-63.601 -28.047)" fill="#fff"/>
          <path id="Path_28" data-name="Path 28" d="M111.442,28.484,107.9,47.2h3.963l1.434-7.589h6.071l.675-3.373h-6.071l.843-4.385H122.4a23.846,23.846,0,0,0-.253-3.457H111.442Z" transform="translate(-67.002 -28.063)" fill="#fff"/>
        </g>
      </g>
    </g>
    <g id="Group_13" data-name="Group 13" transform="translate(74.706 5.321)">
      <path id="Path_29" data-name="Path 29" d="M139.482,24.936c-.05.05-.05.149-.1.2a6.419,6.419,0,0,1-1.339,1.835l-.843-.546.3-.3a5.669,5.669,0,0,0,1.091-1.587Zm2.232-7.639v6.944H137.7V17.3Zm-.942.942h-2.133v1.091h2.133Zm-2.133,3.026h2.133V20.125h-2.133Zm0,2.182h2.133v-1.29h-2.133Zm2.53,3.472a7.138,7.138,0,0,0-1.141-1.984l.843-.446a12,12,0,0,1,1.24,1.984Zm4.167-5.407a13.205,13.205,0,0,1-2.778,3.373l-.694-.942a17.749,17.749,0,0,0,1.934-1.835,12.8,12.8,0,0,0,1.438-2.182H142.21v-.942h3.075V17h.992v2.034h.942v.942h-.942v5.8a1.219,1.219,0,0,1-.248.843c-.149.2-.5.248-.992.248H143.7l-.248-.992,1.438.05c.248,0,.347-.1.347-.347V21.563h.1Z" transform="translate(-137.15 -16.901)" fill="#313131"/>
      <path id="Path_30" data-name="Path 30" d="M165.6,17.5h9.474v9.771h-.942v-.446h-7.589v.446H165.6V17.5Zm7.291,4.811.347.4.446.546-.694.446-.3-.4h-.2v.5h1.339v.694h-1.339v.4a.791.791,0,0,1-.2.6c-.1.149-.4.2-.794.2h-1.19l-.2-.694,1.091.05c.248,0,.347-.1.347-.3v-.2H166.89v-.694h4.663V23.4l-2.034.1-2.43.05-.149-.794h2.778v-.4h-2.579V19.782h2.579v-.347H166.84V18.74h2.877v-.4h-3.274v7.738h7.589V18.244H170.56v.4h3.125v.694H170.56v.347h2.728v2.579h-.4Zm-4.067,3.472-.347-.446a1.159,1.159,0,0,0-.347-.347l-.05-.05.744-.347.347.347a3.242,3.242,0,0,1,.347.4l.1.1Zm-.744-5.456v.446h1.736v-.446Zm0,.942v.446h1.736V21.27Zm2.579-.942v.446h1.885v-.446Zm0,.942v.446h1.885V21.27Zm0,1.042v.4h1.587l-.3-.347-1.29-.05Z" transform="translate(-153.646 -17.153)" fill="#313131"/>
      <path id="Path_31" data-name="Path 31" d="M194.885,22.059l-.942-.645a5.872,5.872,0,0,0-.6-.4,2.846,2.846,0,0,1-.347-.2l.645-.843.942.5a10.513,10.513,0,0,1,.992.645Zm.992,1.339a4.014,4.014,0,0,1-.3.645,14.689,14.689,0,0,1-1.686,2.877l-.843-.893a12.825,12.825,0,0,0,1.637-2.778,3.259,3.259,0,0,1,.3-.6Zm-.5-4.216-.942-.694c-.248-.149-.546-.347-.942-.6l.645-.843.942.5q.223.149.744.446a.685.685,0,0,0,.2.149Zm.5,3.075v-.992H198.7V19.381h-2.232v-.893H198.7V17h1.042v1.488h2.827v.942h-2.827v1.885h3.224v.992h-3.323a19.25,19.25,0,0,1-1.438,3.026c.2,0,.4-.05.546-.05,1.042-.1,1.885-.2,2.43-.3l-.446-.794-.546-.893.893-.347a23.285,23.285,0,0,1,1.885,3.174,2.847,2.847,0,0,0,.2.347l-1.042.5-.248-.546a4.835,4.835,0,0,1-.248-.546,45.189,45.189,0,0,1-5.6.645l-.248-1.141h1.141a26.648,26.648,0,0,0,1.637-3.075C198.506,22.307,195.877,22.307,195.877,22.258Z" transform="translate(-170.134 -16.901)" fill="#313131"/>
      <path id="Path_32" data-name="Path 32" d="M226.455,17v1.24A9.16,9.16,0,0,0,227,20.67a9.652,9.652,0,0,0,1.339,2.778,12.837,12.837,0,0,0,1.587,1.786c.645.6.942.843,1.042.843l-.744.992a7.269,7.269,0,0,1-1.339-1.141A10.954,10.954,0,0,1,227.1,23.7a18.338,18.338,0,0,1-1.091-2.579,15.31,15.31,0,0,1-1.091,2.877,8.615,8.615,0,0,1-1.835,2.133c-.843.744-1.29,1.042-1.438,1.042l-.744-.992a4.6,4.6,0,0,0,1.042-.694,9.609,9.609,0,0,0,1.587-1.587,8.7,8.7,0,0,0,1.29-2.53,9.344,9.344,0,0,0,.446-2.827V17.149h1.19V17Z" transform="translate(-186.13 -16.901)" fill="#313131"/>
      <path id="Path_33" data-name="Path 33" d="M249.6,17.5h9.474v9.771h-.992v-.446h-7.49v.446H249.6Zm.992.794v7.639h7.49V18.294Zm4.563,5.506a13.528,13.528,0,0,1-.6-3.075.968.968,0,0,0-.05-.347h-3.522v-.843h3.522v-.893h.893v.893h2.282v.843H255.4a8.934,8.934,0,0,0,.4,2.53c.05-.1.05-.149.1-.2a9.925,9.925,0,0,0,.694-1.637,1.264,1.264,0,0,1,.1-.347l.744.446A12.774,12.774,0,0,1,256.2,23.9c.248.5.446.794.546.794s.248-.446.446-1.29l.744.645a8.554,8.554,0,0,1-.6,1.389.723.723,0,0,1-.645.347c-.347,0-.744-.347-1.141-1.042a.685.685,0,0,1-.149.2,5.9,5.9,0,0,1-.942.992l-.694-.744.4-.3a1.5,1.5,0,0,0,.4-.4c-.794.2-1.934.446-3.472.694l-.149-.893a20.022,20.022,0,0,0,3.77-.6v.694Zm-3.819-2.827h2.728v2.48h-2.728Zm1.835.744H252.08v.942h1.091Zm3.472-2.232a.182.182,0,0,1-.05-.149,2.426,2.426,0,0,0-.446-.744l-.05-.05.744-.248a1.194,1.194,0,0,1,.3.4l.3.5Z" transform="translate(-202.925 -17.153)" fill="#313131"/>
      <path id="Path_34" data-name="Path 34" d="M280.13,19.381A5.071,5.071,0,0,0,281.816,17l.893.1-.2.5H284.1a1.261,1.261,0,0,1,.1.347,6.341,6.341,0,0,0,.942,1.736l.149-.149a5.732,5.732,0,0,0,.645-.992l.05-.1h-1.29V17.6h2.282v.794a6.593,6.593,0,0,1-1.24,2.034l.1.1a6,6,0,0,0,1.438,1.042l-.546.893a.154.154,0,0,0-.1-.05,6.145,6.145,0,0,1-1.091-.893v.5h-3.274v-.546l-.645.546a3.822,3.822,0,0,1-.645.446l-.694-.744a1.085,1.085,0,0,0,.248-.149,4.892,4.892,0,0,0,.992-.645l.1-.1-.4-.3-.4-.248.5-.5.4.3.347.3.248-.248.2-.248-.4-.3a2.16,2.16,0,0,0-.347-.2.154.154,0,0,1-.1-.05l.4-.546.446.248a.871.871,0,0,1,.248.2l.1.1.248-.446.149-.446h-1.19a4.787,4.787,0,0,1-1.637,1.786l-.347-.694-.5,1.389c.05.05.05.1.1.149a4.636,4.636,0,0,1,.843,2.282c0,.843-.446,1.29-1.389,1.29h-.3l-.248-.992h.1a1.232,1.232,0,0,0,.4.05c.347,0,.546-.149.546-.5a2.815,2.815,0,0,0-.3-1.042,6.733,6.733,0,0,0-.645-1.19,18.423,18.423,0,0,0,.794-2.331c.05-.1.05-.248.1-.4h-1.042v8.829H277.6V17.4h2.976v.6l-.2.645a1.616,1.616,0,0,0-.149.5C280.229,19.232,280.179,19.232,280.13,19.381Zm2.48,4.96a7.744,7.744,0,0,1-2.133,2.083l-.744-.744a7.961,7.961,0,0,0,2.083-1.835Zm1.736,1.24v.149a1.219,1.219,0,0,1-.248.843,1.5,1.5,0,0,1-.992.248h-.694l-.248-.992.843.05c.248,0,.347-.1.347-.347V23.6h-2.53V22.7h6.151V23.6h-2.629Zm-.5-6.6a4.119,4.119,0,0,1-1.29,2.034h2.579A4.483,4.483,0,0,1,283.85,18.984Zm2.778,7.44a11.512,11.512,0,0,0-.893-1.042l-.893-.992.744-.5a8.932,8.932,0,0,1,1.786,1.835Z" transform="translate(-219.517 -16.901)" fill="#313131"/>
      <path id="Path_35" data-name="Path 35" d="M306.982,21.067v-.794a3.955,3.955,0,0,1-.794.4l-.843.347-.546-1.042A9.37,9.37,0,0,0,309.264,17h1.091a10.181,10.181,0,0,0,4.464,2.926l-.546,1.091-.744-.3a4.641,4.641,0,0,1-.744-.4v.744Zm-.843,1.29h7.49v4.663h-1.091v-.645H307.23v.645h-1.091Zm6.349.893h-5.307v2.182h5.307Zm-.05-3.174c-.248-.149-.4-.248-.546-.347a10.25,10.25,0,0,1-2.083-1.835,14.771,14.771,0,0,1-2.53,2.182Z" transform="translate(-235.309 -16.901)" fill="#313131"/>
      <path id="Path_36" data-name="Path 36" d="M332.8,21.216A16.394,16.394,0,0,0,335.429,17l.942.5-.5,1.042a7.156,7.156,0,0,1-.546.942v7.589h-1.042v-6.1l-.546.794c-.1.149-.248.3-.347.446l-.1.1Zm10.019-2.728v.992h-3.77v1.488h3.224v.992H339.05V23.6h3.423v.992H339.05v2.43h-1.042V19.48h-.149a10.972,10.972,0,0,1-1.686,2.381l-.744-.794A11.415,11.415,0,0,0,337.81,17l.992.248a.375.375,0,0,0-.05.2,1.486,1.486,0,0,1-.2.5l-.248.546Z" transform="translate(-251.405 -16.901)" fill="#313131"/>
      <path id="Path_37" data-name="Path 37" d="M365.811,18.691a6.874,6.874,0,0,1-1.042,1.042,6.611,6.611,0,0,1-1.835.794h2.133v2.53h-2.133l-.1.992h2.381l-.1,1.488a2.9,2.9,0,0,1-.149,1.042,1.057,1.057,0,0,1-.5.546,5.65,5.65,0,0,1-1.736.149h-.794l-.3-.942h.4c.744.05,1.19.05,1.389.05.446,0,.694-.149.694-.5,0-.149.05-.4.05-.744v-.248h-2.43l.3-2.53h2.034V21.37H362.09v-.446l-.645.2-.546-.893.794-.149a3.232,3.232,0,0,0,.744-.248l-.347-.347-.4-.4.794-.446c.05.05.1.1.149.1a2.965,2.965,0,0,1,.694.744,3.417,3.417,0,0,0,1.538-.942H362.14V17.7h3.819a5.066,5.066,0,0,0,.893.893l.149-.149a5.1,5.1,0,0,0,.694-.744l.1-.1.843.5-.446.5-.546.546.4.2.4.2.2-.2a7.584,7.584,0,0,0,.694-.843c0-.05.05-.05.1-.1l.843.446a.686.686,0,0,1-.149.2,8.642,8.642,0,0,1-.6.694l-.149.149a.173.173,0,0,1,.1.05,5.556,5.556,0,0,0,1.141.3h.1l-.446.942-.546-.149-.546-.2v.843a.641.641,0,0,0,.1.4.991.991,0,0,0,.446.1h.694v.794h-1.29c-.645,0-.942-.248-.942-.794v-.744H367.2a2.184,2.184,0,0,1-1.19,1.786l-.843-.645a1.653,1.653,0,0,0,1.091-1.587v-.4h2.48A8.021,8.021,0,0,1,365.811,18.691Zm4.315,5.258a6.753,6.753,0,0,1-1.438,1.835,8,8,0,0,0,2.083.645l-.6.893a12.8,12.8,0,0,1-2.282-.893,10.356,10.356,0,0,1-1.835.843c-.05,0-.149.05-.2.05l-.645-.843a6.356,6.356,0,0,0,1.835-.645,4.973,4.973,0,0,1-.6-.546l-.6-.6.843-.4.6.546a7.287,7.287,0,0,0,.645.5,3.519,3.519,0,0,0,1.091-1.19h-3.224V23.3h4.414v.645Z" transform="translate(-267.6 -17.203)" fill="#313131"/>
      <path id="Path_38" data-name="Path 38" d="M396.635,20.178v.893h1.686v.843h-1.686v.942h2.034V23.7H395.1c.05.1.1.149.1.2a5.034,5.034,0,0,0,.694.942A4.983,4.983,0,0,0,397.28,23.7l.694.645a9.044,9.044,0,0,1-1.389,1.091l.149.1a6.234,6.234,0,0,0,1.538.645,3.161,3.161,0,0,0,.347.1l-.4.942a6,6,0,0,1-4.216-3.522h-1.19v2.232l.992-.2a6.439,6.439,0,0,0,.942-.3v1.091a29.7,29.7,0,0,1-3.571.6,1.233,1.233,0,0,0-.4.05l-.149-.992h.645l.6-.05V23.75h-1.438l-.1.546a15.523,15.523,0,0,1-.893,2.827l-.843-.893a12.277,12.277,0,0,0,1.042-5.357V17.5h8.631v2.728h-1.587v-.05Zm-5.952,0v1.686l-.05.942h1.885v-.942h-1.538v-.843h1.538v-.893h-1.835Zm0-.942h6.647v-.893h-6.647Zm2.678.942v.893h2.282v-.893Zm2.282,2.629v-.942h-2.282v.942Z" transform="translate(-283.892 -17.153)" fill="#313131"/>
      <path id="Path_39" data-name="Path 39" d="M418.633,24.141c-.05,0-.05.05-.1.05a11.39,11.39,0,0,1-1.438.794l-.546-.942a7.089,7.089,0,0,0,2.579-1.389H416.5V21.76h1.786V18.437h-1.538v-.893h1.587V16.8h1.042v.744h4.414V16.8h1.042v.744h1.637v.893h-1.637V21.76h1.786v.893H423.99a6.854,6.854,0,0,0,2.629,1.29l-.446.992a8.736,8.736,0,0,1-1.587-.744v.694h-2.43v.794h3.968v.893h-8.978v-.893h3.968v-.843h-2.43l-.05-.694Zm2.48-.1V23.1h1.042v.942h2.133a9.983,9.983,0,0,1-1.538-1.389h-2.331a6.489,6.489,0,0,1-1.19,1.141c-.05.05-.149.1-.248.2h2.133Zm-1.786-2.232h4.415v-.645h-4.415Zm0-2.827h4.415v-.546h-4.415Zm0,1.389h4.415v-.645h-4.415Z" transform="translate(-299.888 -16.8)" fill="#313131"/>
      <path id="Path_40" data-name="Path 40" d="M447.031,25.579a9.694,9.694,0,0,0-.843-1.934l.992-.347c.3.6.546,1.24.794,1.835l.149.446h.942V22.752h-3.919V21.81h3.919v-1.19h-2.381v-.5l-.694.347-.794.4-.6-.992a10.9,10.9,0,0,0,4.464-3.075h.942a17.594,17.594,0,0,0,4.663,3.026l-.645.942-.744-.347a5.423,5.423,0,0,1-.694-.4v.546h-2.43v1.19h3.968V22.7h-3.968V25.53h.942c.347-.744.645-1.538.942-2.381l.992.4a.839.839,0,0,0-.1.248c-.248.645-.5,1.24-.744,1.736h2.083v.942H444.8V25.53h2.232v.05Zm2.48-7.688a10.215,10.215,0,0,1-2.182,1.835h4.563C451.147,19.131,450.354,18.586,449.511,17.891Z" transform="translate(-316.083 -16.8)" fill="#313131"/>
      <path id="Path_41" data-name="Path 41" d="M472.846,20.225l-.446-.942a20.756,20.756,0,0,0,4.464-2.182h1.042a25.327,25.327,0,0,0,4.514,2.083l-.4.992-.347-.149v2.827h-8.482V20.026Zm.694-.3h8.035l-1.042-.446-1.042-.5v.5h-3.819v-.546C475.078,19.233,474.334,19.53,473.541,19.927Zm.149,3.373h7.539v3.72h-.992v-.347h-5.506v.347h-.992V23.3Zm3.323-2.678h-2.827V22.06h2.778V20.622Zm-2.232,4.018h5.506v-.6h-5.506Zm0,1.339h5.506v-.645h-5.506Zm.794-3.918-.4-.546a2.649,2.649,0,0,0-.347-.5l.645-.347a4.337,4.337,0,0,1,.4.5l.347.5Zm1.934-4.266a8.607,8.607,0,0,1-1.29.744c-.05.05-.149.05-.248.149h3.075A15.559,15.559,0,0,1,477.509,17.794Zm3.274,2.827h-2.877V22.06h2.877Zm-2.133.942c.05-.05.149-.2.347-.446l.347-.5.694.347-.347.6a3.371,3.371,0,0,0-.3.446Z" transform="translate(-331.979 -16.951)" fill="#313131"/>
      <g id="Group_12" data-name="Group 12" transform="translate(0 14.88)">
        <path id="Path_42" data-name="Path 42" d="M137.3,52.357V47h1.091v5.307l-1.091.05Z" transform="translate(-137.3 -46.901)" fill="#1a1a1a"/>
        <path id="Path_43" data-name="Path 43" d="M144.971,53.768H143.93V51.784a2.873,2.873,0,0,0-.05-.794,1.038,1.038,0,0,0-.2-.3.717.717,0,0,0-.347-.1.838.838,0,0,0-.5.149.771.771,0,0,0-.3.4,3.1,3.1,0,0,0-.1.893v1.736H141.4V49.9h.942v.546a1.511,1.511,0,0,1,1.29-.645,1.85,1.85,0,0,1,.6.1,1.731,1.731,0,0,1,.446.3,1.226,1.226,0,0,1,.2.446,2.838,2.838,0,0,1,.05.694v2.43Z" transform="translate(-139.366 -48.312)" fill="#1a1a1a"/>
        <path id="Path_44" data-name="Path 44" d="M152.132,48.589v.794h-.694v2.083c0,.05.05.1.1.149a.182.182,0,0,0,.149.05,1.533,1.533,0,0,0,.4-.1l.1.794a2.056,2.056,0,0,1-.794.149,1.467,1.467,0,0,1-.5-.1.89.89,0,0,1-.347-.248,3.417,3.417,0,0,1-.149-.4c0-.1-.05-.347-.05-.744V49.333H149.9v-.794h.446V47.8l1.042-.6v1.339h.744Z" transform="translate(-143.65 -47.002)" fill="#1a1a1a"/>
        <path id="Path_45" data-name="Path 45" d="M157.88,52.528l1.042.149a1.591,1.591,0,0,1-1.637,1.141,1.642,1.642,0,0,1-1.488-.645,2.257,2.257,0,0,1-.4-1.339,2,2,0,0,1,.5-1.488,1.72,1.72,0,0,1,1.29-.546,1.68,1.68,0,0,1,1.339.546,2.682,2.682,0,0,1,.5,1.736h-2.629a.981.981,0,0,0,.248.694.821.821,0,0,0,.6.248.563.563,0,0,0,.4-.149C157.731,52.776,157.83,52.776,157.88,52.528Zm.1-1.042a1.075,1.075,0,0,0-.248-.694.582.582,0,0,0-.546-.248.8.8,0,0,0-.546.248.915.915,0,0,0-.2.645h1.538Z" transform="translate(-146.422 -48.312)" fill="#1a1a1a"/>
        <path id="Path_46" data-name="Path 46" d="M165.242,53.818H164.2V49.95h.942V50.5a1.114,1.114,0,0,1,.446-.5.737.737,0,0,1,.446-.1,1.24,1.24,0,0,1,.694.2l-.3.893a.957.957,0,0,0-.5-.149.717.717,0,0,0-.347.1.621.621,0,0,0-.248.446,6.635,6.635,0,0,0-.1,1.29v1.141Z" transform="translate(-150.857 -48.362)" fill="#1a1a1a"/>
        <path id="Path_47" data-name="Path 47" d="M173.671,53.768H172.63V51.784a2.874,2.874,0,0,0-.05-.794,1.038,1.038,0,0,0-.2-.3.717.717,0,0,0-.347-.1.838.838,0,0,0-.5.149.771.771,0,0,0-.3.4,3.1,3.1,0,0,0-.1.893v1.736H170.1V49.9h.942v.546a1.511,1.511,0,0,1,1.29-.645,1.85,1.85,0,0,1,.6.1,1.731,1.731,0,0,1,.446.3,1.226,1.226,0,0,1,.2.446,2.839,2.839,0,0,1,.05.694v2.43Z" transform="translate(-153.831 -48.312)" fill="#1a1a1a"/>
        <path id="Path_48" data-name="Path 48" d="M180.092,51.24l-.942-.149a1.483,1.483,0,0,1,.546-.843A1.86,1.86,0,0,1,180.836,50a2.9,2.9,0,0,1,1.042.149.722.722,0,0,1,.446.4,1.793,1.793,0,0,1,.149.893v1.19a2.856,2.856,0,0,0,.05.744,2.073,2.073,0,0,0,.2.5h-.992c-.05-.05-.05-.149-.1-.3a.173.173,0,0,0-.05-.1,3.786,3.786,0,0,1-.546.4,1.373,1.373,0,0,1-.645.149,1.235,1.235,0,0,1-.942-.347.987.987,0,0,1-.347-.794,1.321,1.321,0,0,1,.149-.6,1.171,1.171,0,0,1,.446-.4,5.115,5.115,0,0,1,.794-.248,4.627,4.627,0,0,0,.992-.248v-.1c0-.2-.05-.347-.149-.4a.8.8,0,0,0-.546-.149.99.99,0,0,0-.446.1A.41.41,0,0,0,180.092,51.24Zm1.339.744a4.254,4.254,0,0,1-.645.149.958.958,0,0,0-.546.2.374.374,0,0,0-.2.347.45.45,0,0,0,.149.347.563.563,0,0,0,.4.149.826.826,0,0,0,.546-.2.89.89,0,0,0,.248-.347,1.244,1.244,0,0,0,.05-.5v-.149Z" transform="translate(-158.367 -48.413)" fill="#1a1a1a"/>
        <path id="Path_49" data-name="Path 49" d="M189.132,48.589v.794h-.694v2.083c0,.05.05.1.1.149a.182.182,0,0,0,.149.05,1.534,1.534,0,0,0,.4-.1l.1.794a2.056,2.056,0,0,1-.794.149,1.467,1.467,0,0,1-.5-.1.889.889,0,0,1-.347-.248,3.42,3.42,0,0,1-.149-.4c0-.1-.05-.347-.05-.744V49.333H186.9v-.794h.446V47.8l1.042-.6v1.339h.744Z" transform="translate(-162.298 -47.002)" fill="#1a1a1a"/>
        <path id="Path_50" data-name="Path 50" d="M192.9,47.992V47h1.042v.992Zm0,4.365V48.488h1.042v3.869Z" transform="translate(-165.322 -46.901)" fill="#1a1a1a"/>
        <path id="Path_51" data-name="Path 51" d="M196.8,51.784a2.44,2.44,0,0,1,.248-.992,1.681,1.681,0,0,1,.694-.744,2.306,2.306,0,0,1,1.042-.248,2.07,2.07,0,0,1,1.438.546,1.8,1.8,0,0,1,.546,1.438,1.984,1.984,0,0,1-.546,1.438,1.908,1.908,0,0,1-1.438.6,2.258,2.258,0,0,1-.992-.248,1.989,1.989,0,0,1-.744-.694A1.7,1.7,0,0,1,196.8,51.784Zm.992.1a1.473,1.473,0,0,0,.248.893.832.832,0,0,0,.694.3.9.9,0,0,0,.694-.3,1.2,1.2,0,0,0,.248-.893,1.586,1.586,0,0,0-.248-.893.959.959,0,0,0-1.389,0A1.2,1.2,0,0,0,197.792,51.883Z" transform="translate(-167.287 -48.312)" fill="#1a1a1a"/>
        <path id="Path_52" data-name="Path 52" d="M210.022,53.768H208.98V51.784a2.873,2.873,0,0,0-.05-.794,1.038,1.038,0,0,0-.2-.3.717.717,0,0,0-.347-.1.838.838,0,0,0-.5.149.771.771,0,0,0-.3.4,3.1,3.1,0,0,0-.1.893v1.736H206.5V49.9h.942v.546a1.511,1.511,0,0,1,1.29-.645,1.85,1.85,0,0,1,.6.1,1.731,1.731,0,0,1,.446.3,1.226,1.226,0,0,1,.2.446,2.837,2.837,0,0,1,.05.694v2.43Z" transform="translate(-172.176 -48.312)" fill="#1a1a1a"/>
        <path id="Path_53" data-name="Path 53" d="M216.192,51.24l-.942-.149a1.483,1.483,0,0,1,.546-.843A1.86,1.86,0,0,1,216.936,50a2.9,2.9,0,0,1,1.042.149.722.722,0,0,1,.446.4,1.793,1.793,0,0,1,.149.893v1.19a2.856,2.856,0,0,0,.05.744,2.073,2.073,0,0,0,.2.5h-.992c-.05-.05-.05-.149-.1-.3a.173.173,0,0,0-.05-.1,3.786,3.786,0,0,1-.546.4,1.373,1.373,0,0,1-.645.149,1.235,1.235,0,0,1-.942-.347.987.987,0,0,1-.347-.794,1.321,1.321,0,0,1,.149-.6,1.171,1.171,0,0,1,.446-.4,5.115,5.115,0,0,1,.794-.248,4.626,4.626,0,0,0,.992-.248v-.1c0-.2-.05-.347-.149-.4a.8.8,0,0,0-.546-.149.99.99,0,0,0-.446.1A.5.5,0,0,0,216.192,51.24Zm1.339.744a4.254,4.254,0,0,1-.645.149.958.958,0,0,0-.546.2.374.374,0,0,0-.2.347.45.45,0,0,0,.149.347.563.563,0,0,0,.4.149.826.826,0,0,0,.546-.2.89.89,0,0,0,.248-.347,1.244,1.244,0,0,0,.05-.5v-.149Z" transform="translate(-176.561 -48.413)" fill="#1a1a1a"/>
        <path id="Path_54" data-name="Path 54" d="M224.1,52.357V47h1.042v5.307l-1.042.05Z" transform="translate(-181.046 -46.901)" fill="#1a1a1a"/>
        <path id="Path_55" data-name="Path 55" d="M235.721,50.272l1.042.347a2.4,2.4,0,0,1-.794,1.29,2.458,2.458,0,0,1-3.174-.3,2.838,2.838,0,0,1-.694-1.984,3.013,3.013,0,0,1,.694-2.083,2.285,2.285,0,0,1,1.786-.744,2.171,2.171,0,0,1,1.587.6,1.925,1.925,0,0,1,.546.992l-1.042.248a.97.97,0,0,0-.4-.645,1.218,1.218,0,0,0-.744-.248,1.152,1.152,0,0,0-.942.446,2.123,2.123,0,0,0-.347,1.389,2.19,2.19,0,0,0,.347,1.438,1.152,1.152,0,0,0,.942.446,1.218,1.218,0,0,0,.744-.248A1.405,1.405,0,0,0,235.721,50.272Z" transform="translate(-185.078 -46.8)" fill="#1a1a1a"/>
        <path id="Path_56" data-name="Path 56" d="M243.1,51.784a2.44,2.44,0,0,1,.248-.992,1.681,1.681,0,0,1,.694-.744,2.306,2.306,0,0,1,1.042-.248,2.07,2.07,0,0,1,1.438.546,1.8,1.8,0,0,1,.546,1.438,1.985,1.985,0,0,1-.546,1.438,1.908,1.908,0,0,1-1.438.6,2.258,2.258,0,0,1-.992-.248,1.989,1.989,0,0,1-.744-.694A1.7,1.7,0,0,1,243.1,51.784Zm.992.1a1.473,1.473,0,0,0,.248.893.832.832,0,0,0,.694.3.9.9,0,0,0,.694-.3,1.2,1.2,0,0,0,.248-.893,1.586,1.586,0,0,0-.248-.893.959.959,0,0,0-1.389,0A1.2,1.2,0,0,0,244.092,51.883Z" transform="translate(-190.622 -48.312)" fill="#1a1a1a"/>
        <path id="Path_57" data-name="Path 57" d="M252.2,51.784a2.44,2.44,0,0,1,.248-.992,1.681,1.681,0,0,1,.694-.744,2.306,2.306,0,0,1,1.042-.248,2.07,2.07,0,0,1,1.438.546,1.8,1.8,0,0,1,.546,1.438,1.985,1.985,0,0,1-.546,1.438,1.908,1.908,0,0,1-1.438.6,2.258,2.258,0,0,1-.992-.248,1.989,1.989,0,0,1-.744-.694A2.085,2.085,0,0,1,252.2,51.784Zm1.042.1a1.473,1.473,0,0,0,.248.893.832.832,0,0,0,.694.3.9.9,0,0,0,.694-.3,1.2,1.2,0,0,0,.248-.893,1.586,1.586,0,0,0-.248-.893.959.959,0,0,0-1.389,0A1.2,1.2,0,0,0,253.242,51.883Z" transform="translate(-195.208 -48.312)" fill="#1a1a1a"/>
        <path id="Path_58" data-name="Path 58" d="M261.9,49.849h.942v.546a1.576,1.576,0,0,1,.5-.5,1.139,1.139,0,0,1,.694-.2,1.483,1.483,0,0,1,1.141.546,2.222,2.222,0,0,1,.446,1.488,2,2,0,0,1-.5,1.488,1.562,1.562,0,0,1-1.141.546,1.321,1.321,0,0,1-.6-.149,3.62,3.62,0,0,1-.546-.446v1.984H261.8V49.849Zm.992,1.885a1.533,1.533,0,0,0,.248.942.8.8,0,0,0,.645.3.707.707,0,0,0,.6-.3,1.533,1.533,0,0,0,.248-.942,1.473,1.473,0,0,0-.248-.893.707.707,0,0,0-.6-.3.873.873,0,0,0-.645.3A1.587,1.587,0,0,0,262.891,51.734Z" transform="translate(-200.047 -48.262)" fill="#1a1a1a"/>
        <path id="Path_59" data-name="Path 59" d="M273.28,52.528l1.042.149a1.591,1.591,0,0,1-1.637,1.141,1.641,1.641,0,0,1-1.488-.645,2.257,2.257,0,0,1-.4-1.339,2,2,0,0,1,.5-1.488,1.719,1.719,0,0,1,1.29-.546,1.68,1.68,0,0,1,1.339.546,2.682,2.682,0,0,1,.5,1.736h-2.579a.981.981,0,0,0,.248.694.821.821,0,0,0,.6.248.563.563,0,0,0,.4-.149C273.131,52.776,273.23,52.776,273.28,52.528Zm0-1.042a1.075,1.075,0,0,0-.248-.694.582.582,0,0,0-.546-.248.8.8,0,0,0-.546.248.915.915,0,0,0-.2.645h1.538Z" transform="translate(-204.582 -48.312)" fill="#1a1a1a"/>
        <path id="Path_60" data-name="Path 60" d="M280.642,53.818H279.6V49.95h.942V50.5a1.114,1.114,0,0,1,.446-.5.737.737,0,0,1,.446-.1,1.24,1.24,0,0,1,.694.2l-.3.893a.957.957,0,0,0-.5-.149.717.717,0,0,0-.347.1.621.621,0,0,0-.248.446,6.242,6.242,0,0,0-.1,1.29v1.141Z" transform="translate(-209.018 -48.362)" fill="#1a1a1a"/>
        <path id="Path_61" data-name="Path 61" d="M285.992,51.24l-.942-.149a1.483,1.483,0,0,1,.546-.843A1.86,1.86,0,0,1,286.736,50a2.9,2.9,0,0,1,1.042.149.723.723,0,0,1,.446.4,1.793,1.793,0,0,1,.149.893v1.19a2.855,2.855,0,0,0,.05.744,2.072,2.072,0,0,0,.2.5h-.992c-.05-.05-.05-.149-.1-.3a.173.173,0,0,0-.05-.1,3.784,3.784,0,0,1-.546.4,1.373,1.373,0,0,1-.645.149,1.235,1.235,0,0,1-.942-.347.987.987,0,0,1-.347-.794,1.321,1.321,0,0,1,.149-.6,1.171,1.171,0,0,1,.446-.4,5.114,5.114,0,0,1,.794-.248,4.627,4.627,0,0,0,.992-.248v-.1c0-.2-.05-.347-.149-.4a.8.8,0,0,0-.546-.149.991.991,0,0,0-.446.1C286.141,50.893,286.091,50.992,285.992,51.24Zm1.389.744a4.253,4.253,0,0,1-.645.149.959.959,0,0,0-.546.2.374.374,0,0,0-.2.347.45.45,0,0,0,.149.347.563.563,0,0,0,.4.149.826.826,0,0,0,.546-.2.89.89,0,0,0,.248-.347,1.245,1.245,0,0,0,.05-.5Z" transform="translate(-211.739 -48.413)" fill="#1a1a1a"/>
        <path id="Path_62" data-name="Path 62" d="M295.232,48.589v.794h-.694v2.083c0,.05.05.1.1.149a.182.182,0,0,0,.149.05,1.533,1.533,0,0,0,.4-.1l.1.794a2.056,2.056,0,0,1-.794.149,1.467,1.467,0,0,1-.5-.1.89.89,0,0,1-.347-.248,3.412,3.412,0,0,1-.149-.4c0-.1-.05-.347-.05-.744V49.333H293v-.794h.446V47.8l1.042-.6v1.339h.744Z" transform="translate(-215.771 -47.002)" fill="#1a1a1a"/>
        <path id="Path_63" data-name="Path 63" d="M299,47.992V47h1.042v.992Zm0,4.365V48.488h1.042v3.869Z" transform="translate(-218.795 -46.901)" fill="#1a1a1a"/>
        <path id="Path_64" data-name="Path 64" d="M302.8,51.784a2.44,2.44,0,0,1,.248-.992,1.681,1.681,0,0,1,.694-.744,2.306,2.306,0,0,1,1.042-.248,2.069,2.069,0,0,1,1.438.546,1.8,1.8,0,0,1,.546,1.438,1.984,1.984,0,0,1-.546,1.438,1.908,1.908,0,0,1-1.438.6,2.258,2.258,0,0,1-.992-.248,1.989,1.989,0,0,1-.744-.694A2.085,2.085,0,0,1,302.8,51.784Zm1.091.1a1.473,1.473,0,0,0,.248.893.832.832,0,0,0,.694.3.9.9,0,0,0,.694-.3,1.2,1.2,0,0,0,.248-.893,1.586,1.586,0,0,0-.248-.893.959.959,0,0,0-1.389,0C303.891,51.139,303.891,51.486,303.891,51.883Z" transform="translate(-220.71 -48.312)" fill="#1a1a1a"/>
        <path id="Path_65" data-name="Path 65" d="M315.871,53.768H314.83V51.784a2.874,2.874,0,0,0-.05-.794,1.038,1.038,0,0,0-.2-.3.717.717,0,0,0-.347-.1.838.838,0,0,0-.5.149.771.771,0,0,0-.3.4,3.1,3.1,0,0,0-.1.893v1.736H312.3V49.9h.942v.546a1.511,1.511,0,0,1,1.29-.645,1.85,1.85,0,0,1,.6.1,1.731,1.731,0,0,1,.446.3,1.225,1.225,0,0,1,.2.446,2.837,2.837,0,0,1,.05.694v2.43Z" transform="translate(-225.498 -48.312)" fill="#1a1a1a"/>
        <path id="Path_66" data-name="Path 66" d="M326.492,51.24l-.942-.149a1.483,1.483,0,0,1,.546-.843A1.86,1.86,0,0,1,327.236,50a2.9,2.9,0,0,1,1.042.149.722.722,0,0,1,.446.4,1.793,1.793,0,0,1,.149.893v1.19a2.856,2.856,0,0,0,.05.744,2.074,2.074,0,0,0,.2.5h-.992c-.05-.05-.05-.149-.1-.3a.173.173,0,0,0-.05-.1,3.782,3.782,0,0,1-.546.4,1.373,1.373,0,0,1-.645.149,1.235,1.235,0,0,1-.942-.347.987.987,0,0,1-.347-.794,1.321,1.321,0,0,1,.149-.6,1.171,1.171,0,0,1,.446-.4,5.114,5.114,0,0,1,.794-.248,4.628,4.628,0,0,0,.992-.248v-.1c0-.2-.05-.347-.149-.4a.8.8,0,0,0-.546-.149.99.99,0,0,0-.446.1C326.641,50.893,326.591,50.992,326.492,51.24Zm1.339.744a4.253,4.253,0,0,1-.645.149.959.959,0,0,0-.546.2.374.374,0,0,0-.2.347.45.45,0,0,0,.149.347.563.563,0,0,0,.4.149.826.826,0,0,0,.546-.2.889.889,0,0,0,.248-.347,1.244,1.244,0,0,0,.05-.5Z" transform="translate(-232.151 -48.413)" fill="#1a1a1a"/>
        <path id="Path_67" data-name="Path 67" d="M337.972,53.768h-.992V51.784a2.874,2.874,0,0,0-.05-.794,1.038,1.038,0,0,0-.2-.3.717.717,0,0,0-.347-.1.838.838,0,0,0-.5.149.771.771,0,0,0-.3.4,3.1,3.1,0,0,0-.1.893v1.736H334.5V49.9h.942v.546a1.511,1.511,0,0,1,1.29-.645,1.85,1.85,0,0,1,.6.1,1.731,1.731,0,0,1,.446.3,1.227,1.227,0,0,1,.2.446,2.636,2.636,0,0,1,.05.694l-.05,2.43Z" transform="translate(-236.687 -48.312)" fill="#1a1a1a"/>
        <path id="Path_68" data-name="Path 68" d="M346.97,52.407h-.942v-.546a1.716,1.716,0,0,1-.546.5,1.527,1.527,0,0,1-.645.149,1.483,1.483,0,0,1-1.141-.546,2.586,2.586,0,0,1-.05-2.976,1.47,1.47,0,0,1,1.19-.5,1.562,1.562,0,0,1,1.141.546V47.1h1.042l-.05,5.307Zm-2.778-1.984a2.072,2.072,0,0,0,.149.893.791.791,0,0,0,.694.4.707.707,0,0,0,.6-.3,1.473,1.473,0,0,0,.248-.893,1.533,1.533,0,0,0-.248-.942.744.744,0,0,0-1.19,0A1.7,1.7,0,0,0,344.192,50.423Z" transform="translate(-241.071 -46.951)" fill="#1a1a1a"/>
        <path id="Path_69" data-name="Path 69" d="M357.2,47h1.984a4.341,4.341,0,0,1,.992.1,1.667,1.667,0,0,1,.794.5,2.9,2.9,0,0,1,.5.843,4.043,4.043,0,0,1,.2,1.24,3.977,3.977,0,0,1-.149,1.141,2.56,2.56,0,0,1-.6.942,1.867,1.867,0,0,1-.744.446,2.611,2.611,0,0,1-.942.1H357.2Zm1.042.893v3.522h.794a2.238,2.238,0,0,0,.645-.05,1.225,1.225,0,0,0,.446-.2,2.169,2.169,0,0,0,.3-.5,2.624,2.624,0,0,0,.1-.992,3.846,3.846,0,0,0-.1-.942,1.2,1.2,0,0,0-.3-.5,1.163,1.163,0,0,0-.5-.248,3.8,3.8,0,0,0-.893-.05l-.5-.05Z" transform="translate(-356.654 -38.965)" fill="#1a1a1a"/>
        <path id="Path_70" data-name="Path 70" d="M369.98,52.528l1.042.149a1.591,1.591,0,0,1-1.637,1.141,1.641,1.641,0,0,1-1.488-.645,2.257,2.257,0,0,1-.4-1.339,2,2,0,0,1,.5-1.488,1.72,1.72,0,0,1,1.29-.546,1.68,1.68,0,0,1,1.339.546,2.682,2.682,0,0,1,.5,1.736h-2.579a.981.981,0,0,0,.248.694.822.822,0,0,0,.6.248.563.563,0,0,0,.4-.149C369.881,52.776,369.98,52.776,369.98,52.528Zm.1-1.042a1.075,1.075,0,0,0-.248-.694.582.582,0,0,0-.546-.248.711.711,0,0,0-.546.248.915.915,0,0,0-.2.645h1.538Z" transform="translate(-361.846 -40.376)" fill="#1a1a1a"/>
        <path id="Path_71" data-name="Path 71" d="M376.938,53.818,375.4,49.95h1.091l.744,1.984.2.645a2.021,2.021,0,0,0,.1-.347,3.175,3.175,0,0,0,.1-.347l.744-1.984h1.042l-1.538,3.869h-.942Z" transform="translate(-365.827 -40.426)" fill="#1a1a1a"/>
        <path id="Path_72" data-name="Path 72" d="M386.78,52.528l1.042.149a1.591,1.591,0,0,1-1.637,1.141,1.642,1.642,0,0,1-1.488-.645,2.257,2.257,0,0,1-.4-1.339,2,2,0,0,1,.5-1.488,1.72,1.72,0,0,1,1.29-.546,1.68,1.68,0,0,1,1.339.546,2.683,2.683,0,0,1,.5,1.736h-2.579a.981.981,0,0,0,.248.694.821.821,0,0,0,.6.248.563.563,0,0,0,.4-.149A.462.462,0,0,0,386.78,52.528Zm.1-1.042a1.075,1.075,0,0,0-.248-.694.582.582,0,0,0-.546-.248.711.711,0,0,0-.546.248.915.915,0,0,0-.2.645h1.538Z" transform="translate(-370.313 -40.376)" fill="#1a1a1a"/>
        <path id="Path_73" data-name="Path 73" d="M393.2,52.357V47h1.042v5.307l-1.042.05Z" transform="translate(-374.798 -38.965)" fill="#1a1a1a"/>
        <path id="Path_74" data-name="Path 74" d="M397,51.784a2.44,2.44,0,0,1,.248-.992,1.989,1.989,0,0,1,.694-.744,2.305,2.305,0,0,1,1.042-.248,2.069,2.069,0,0,1,1.438.546,1.8,1.8,0,0,1,.546,1.438,1.984,1.984,0,0,1-.546,1.438,1.908,1.908,0,0,1-1.438.6,2.258,2.258,0,0,1-.992-.248,1.988,1.988,0,0,1-.744-.694A2.085,2.085,0,0,1,397,51.784Zm1.091.1a1.473,1.473,0,0,0,.248.893.959.959,0,0,0,1.389,0,1.2,1.2,0,0,0,.248-.893,1.586,1.586,0,0,0-.248-.893.959.959,0,0,0-1.389,0A1.136,1.136,0,0,0,398.091,51.883Z" transform="translate(-376.713 -40.376)" fill="#1a1a1a"/>
        <path id="Path_75" data-name="Path 75" d="M406.7,49.849h.942v.546a1.577,1.577,0,0,1,.5-.5,1.615,1.615,0,0,1,.694-.2,1.483,1.483,0,0,1,1.141.546,2.222,2.222,0,0,1,.446,1.488,2,2,0,0,1-.5,1.488,1.483,1.483,0,0,1-1.141.546,1.321,1.321,0,0,1-.6-.149,3.617,3.617,0,0,1-.546-.446v1.984H406.6V49.849Zm.992,1.885a1.533,1.533,0,0,0,.248.942.8.8,0,0,0,.645.3.707.707,0,0,0,.6-.3,1.533,1.533,0,0,0,.248-.942,1.473,1.473,0,0,0-.248-.893.707.707,0,0,0-.6-.3.873.873,0,0,0-.645.3A1.586,1.586,0,0,0,407.691,51.734Z" transform="translate(-381.551 -40.325)" fill="#1a1a1a"/>
        <path id="Path_76" data-name="Path 76" d="M415.8,49.95h.942V50.5a1.551,1.551,0,0,1,1.19-.6,1.373,1.373,0,0,1,.645.149.973.973,0,0,1,.446.446,1.551,1.551,0,0,1,.546-.446,1.373,1.373,0,0,1,.645-.149,1.656,1.656,0,0,1,.744.149,1.086,1.086,0,0,1,.446.5,2.808,2.808,0,0,1,.1.794v2.48h-1.042V51.636a1.966,1.966,0,0,0-.1-.744.484.484,0,0,0-.446-.2.563.563,0,0,0-.4.149.783.783,0,0,0-.248.4,3.107,3.107,0,0,0-.1.794v1.835h-1.042V51.735a2.652,2.652,0,0,0-.05-.744,1.086,1.086,0,0,0-.149-.248.705.705,0,0,0-.3-.1.8.8,0,0,0-.446.149.574.574,0,0,0-.248.347,2.809,2.809,0,0,0-.1.794v1.885H415.8V49.95Z" transform="translate(-386.188 -40.426)" fill="#1a1a1a"/>
        <path id="Path_77" data-name="Path 77" d="M431.48,52.528l1.042.149a1.591,1.591,0,0,1-1.637,1.141,1.642,1.642,0,0,1-1.488-.645,2.257,2.257,0,0,1-.4-1.339,2,2,0,0,1,.5-1.488,1.72,1.72,0,0,1,1.29-.546,1.68,1.68,0,0,1,1.339.546,2.683,2.683,0,0,1,.5,1.736h-2.629a.981.981,0,0,0,.248.694.821.821,0,0,0,.6.248.563.563,0,0,0,.4-.149C431.381,52.776,431.381,52.776,431.48,52.528Zm0-1.042a1.075,1.075,0,0,0-.248-.694.582.582,0,0,0-.546-.248.711.711,0,0,0-.546.248.915.915,0,0,0-.2.645h1.538Z" transform="translate(-392.841 -40.376)" fill="#1a1a1a"/>
        <path id="Path_78" data-name="Path 78" d="M441.371,53.768H440.33V51.784a2.874,2.874,0,0,0-.05-.794,1.039,1.039,0,0,0-.2-.3.717.717,0,0,0-.347-.1.838.838,0,0,0-.5.149.772.772,0,0,0-.3.4,3.1,3.1,0,0,0-.1.893v1.736H437.8V49.9h.942v.546a1.511,1.511,0,0,1,1.29-.645,1.85,1.85,0,0,1,.6.1,1.731,1.731,0,0,1,.446.3,1.225,1.225,0,0,1,.2.446,2.636,2.636,0,0,1,.05.694v2.43Z" transform="translate(-397.276 -40.376)" fill="#1a1a1a"/>
        <path id="Path_79" data-name="Path 79" d="M448.432,48.589v.794h-.694v2.083c0,.05.05.1.1.149a.182.182,0,0,0,.149.05,1.533,1.533,0,0,0,.4-.1l.1.794a2.056,2.056,0,0,1-.794.149,1.468,1.468,0,0,1-.5-.1.89.89,0,0,1-.347-.248,3.417,3.417,0,0,1-.149-.4c0-.1-.05-.347-.05-.744V49.333H446.2v-.794h.446V47.8l1.042-.6v1.339h.744Z" transform="translate(-401.509 -39.065)" fill="#1a1a1a"/>
        <path id="Path_80" data-name="Path 80" d="M456.5,52.357V47h3.67v.893h-2.579v1.24h2.232v.893h-2.232v2.282H456.5Z" transform="translate(-406.7 -38.965)" fill="#1a1a1a"/>
        <path id="Path_81" data-name="Path 81" d="M468.179,53.919v-.6a2.6,2.6,0,0,1-.546.5,1.839,1.839,0,0,1-.744.2,1.584,1.584,0,0,1-.694-.149,1.085,1.085,0,0,1-.446-.5,1.976,1.976,0,0,1-.149-.843V50.1h1.042v1.786a4.08,4.08,0,0,0,.05.992,1.038,1.038,0,0,0,.2.3.534.534,0,0,0,.4.1.606.606,0,0,0,.446-.149.667.667,0,0,0,.3-.347,3.887,3.887,0,0,0,.1-1.042V50.1h1.042v3.869l-.992-.05Z" transform="translate(-411.287 -40.527)" fill="#1a1a1a"/>
        <path id="Path_82" data-name="Path 82" d="M478.371,53.768H477.33V51.784a2.87,2.87,0,0,0-.05-.794,1.038,1.038,0,0,0-.2-.3.717.717,0,0,0-.347-.1.838.838,0,0,0-.5.149.771.771,0,0,0-.3.4,3.1,3.1,0,0,0-.1.893v1.736H474.8V49.9h.942v.546a1.511,1.511,0,0,1,1.29-.645,1.85,1.85,0,0,1,.6.1,1.731,1.731,0,0,1,.446.3,1.225,1.225,0,0,1,.2.446,2.633,2.633,0,0,1,.05.694v2.43Z" transform="translate(-415.923 -40.376)" fill="#1a1a1a"/>
        <path id="Path_83" data-name="Path 83" d="M487.37,52.407h-.942v-.546a1.716,1.716,0,0,1-.546.5,1.527,1.527,0,0,1-.645.149,1.483,1.483,0,0,1-1.141-.546,2.586,2.586,0,0,1-.05-2.976,1.471,1.471,0,0,1,1.19-.5,1.562,1.562,0,0,1,1.141.546V47.1h1.042l-.05,5.307Zm-2.678-1.984a2.072,2.072,0,0,0,.149.893.791.791,0,0,0,.694.4.707.707,0,0,0,.6-.3,1.473,1.473,0,0,0,.248-.893,1.533,1.533,0,0,0-.248-.942.744.744,0,0,0-1.19,0A1.314,1.314,0,0,0,484.691,50.423Z" transform="translate(-420.359 -39.015)" fill="#1a1a1a"/>
      </g>
    </g>
  </g>
</svg>
